<svg width="32" height="32" viewBox="0 0 32 32" xmlns="http://www.w3.org/2000/svg"><title>Icon/Details/Edad-Promedio</title><g transform="translate(4 1)" fill="#00C46C" fill-rule="nonzero"><path d="M18.82 16.708s-1.615.124-2.05-1.304v-.621c.621-.684 1.056-1.429 1.49-2.112a.466.466 0 0 0 0-.56c.436-1.117.684-2.856.746-4.16.124-.125.249-.25.249-.498v-.745c0-4.348-3.416-6.646-6.833-6.646-3.167 0-6.646 2.05-6.77 6.522 0 1.056.187 4.037.994 5.714 0 0-.062.497.062.683.373.497.745 1.18 1.304 1.864.187.931-.559 1.987-2.05 1.925-3.105 0-5.651 2.298-5.651 5.093v4.1c0 .186.124.435.31.497C4.1 28.634 8.2 29.814 12.422 29.814c4.286 0 8.323-1.18 11.74-3.416.186-.125.31-.311.31-.497v-4.1c0-2.795-2.547-5.093-5.652-5.093zm-.745 1.18c-.187.621-.684 1.305-1.615 2.174l-2.174-.807c.931-.373 1.987-.994 2.484-1.926.435.31.87.497 1.305.56zm-5.653.746c-.931-.249-3.105-1.056-3.478-2.174.124-.187.186-.373.249-.56.745.622 1.739 1.119 2.919 1.491h.372a9.08 9.08 0 0 0 3.106-1.552c.062.248.124.434.249.683-.311 1.118-2.485 1.863-3.417 2.112zM8.261 12.98c.559 0 1.118-.31 1.428-.87.87-1.49 2.174-1.614 2.61-1.614h.123c.373 0 1.677.124 2.547 1.615.31.559.932.931 1.553.87-.87 1.304-2.112 2.484-4.224 3.105-2.05-.559-3.168-1.801-4.037-3.106zm7.764-1.49c-1.305-2.236-3.354-2.236-3.727-2.236-.373 0-2.422 0-3.727 2.236-.186.31-.496.31-.745.062 0-.062-.062-.062-.124-.062-.31-.808-.56-1.74-.621-2.671.807-.124 1.553-.373 2.298-.683-.062.124-.124.248-.124.372 0 .373.248.621.62.621.373 0 .622-.248.622-.62 0-.373-.249-.622-.621-.622 1.242-.683 2.298-1.615 3.167-2.484.497-.497 1.367-.435 1.74.186.993 1.553 2.174 2.112 2.981 2.36-.062 1.118-.248 2.547-.559 3.479a.342.342 0 0 0-.31.186c-.311.186-.684.186-.87-.124zm-3.54-10.249c2.67 0 5.527 1.677 5.59 5.404-.56-.186-1.491-.621-2.236-1.801-.497-.684-1.243-1.118-2.05-1.118-.621 0-1.242.248-1.677.745-1.305 1.304-3.168 2.857-5.155 3.106 0-.249-.063-.621 0-.994.062-3.665 2.919-5.342 5.527-5.342zm-4.473 16.15c.56.869 1.553 1.49 2.485 1.925l-2.174.807c-.932-.87-1.429-1.553-1.615-2.174.497-.124.932-.31 1.304-.559zm15.218 8.136c-3.168 1.988-6.895 3.043-10.808 3.043-3.913 0-7.64-1.055-10.807-3.043v-3.727c0-1.987 1.677-3.602 3.85-3.789.187.994.87 2.05 2.299 3.292a.564.564 0 0 0 .435.187c.062 0 .124 0 .186-.062L12.422 20l4.038 1.429c.062 0 .124.062.186.062.124 0 .31-.062.435-.187 1.428-1.304 2.112-2.298 2.298-3.292 2.174.249 3.85 1.864 3.85 3.79v3.726z" stroke="#BDD4DA" stroke-width=".4"/><path d="M11.553 13.23h1.739c.373 0 .621-.249.621-.621 0-.373-.248-.621-.621-.621h-1.74c-.372 0-.62.248-.62.62 0 .373.248.622.62.622z"/><circle cx="15.098" cy="8.45" r="1"/></g></svg>
