<?xml version="1.0" encoding="UTF-8"?>
<svg width="145px" height="24px" viewBox="0 0 145 24" version="1.1" xmlns="http://www.w3.org/2000/svg" xmlns:xlink="http://www.w3.org/1999/xlink">
    <!-- Generator: sketchtool 49.3 (51167) - http://www.bohemiancoding.com/sketch -->
    <title>78DE567E-2625-4421-996F-9FD0A8AA0BC9</title>
    <desc>Created with sketchtool.</desc>
    <defs>
        <path d="M3.94880829,13.125 L3.94880829,3.459 L0.270466321,3.459 L0.270466321,0.525 L11.1973057,0.525 L11.1973057,3.459 L7.50093264,3.459 L7.50093264,13.125 L3.94880829,13.125 Z M12.4414508,4.233 L15.4165803,4.233 L15.6149223,5.205 C16.0837306,4.377 16.9131606,4.017 17.7786528,4.017 C18.6802073,4.017 19.5456995,4.359 20.1226943,4.971 L18.7883938,7.365 C18.2474611,6.933 17.8507772,6.825 17.2918135,6.825 C16.4623834,6.825 15.759171,7.329 15.759171,8.499 L15.759171,13.125 L12.4414508,13.125 L12.4414508,4.233 Z M27.4072539,5.187 L27.5695337,4.233 L30.6889119,4.233 L30.6889119,13.125 L27.6236269,13.125 L27.4793782,12.171 C26.7220725,13.035 25.5320207,13.341 24.5403109,13.287 C21.9258031,13.125 20.465285,11.271 20.465285,8.679 C20.465285,6.051 22.1962694,4.035 24.7927461,4.035 C26.0549223,4.035 26.9384456,4.467 27.4072539,5.187 Z M25.5500518,6.717 C24.558342,6.717 23.7649741,7.437 23.7649741,8.679 C23.7649741,9.921 24.558342,10.623 25.5500518,10.623 C26.6679793,10.623 27.3892228,9.723 27.3892228,8.679 C27.3892228,7.491 26.7220725,6.717 25.5500518,6.717 Z M38.9832124,9.813 L40.8764767,11.793 C39.8126425,12.747 38.5324352,13.305 37.1981347,13.305 C34.601658,13.305 32.1494301,12.027 32.1494301,8.697 C32.1494301,5.457 34.6377202,4.035 37.1440415,4.035 C38.4242487,4.035 39.704456,4.485 40.6420725,5.421 L38.8750259,7.329 C38.4422798,6.879 37.9374093,6.681 37.3423834,6.681 C36.0802073,6.681 35.3950259,7.599 35.3950259,8.715 C35.3950259,9.687 36.0621762,10.551 37.3243523,10.551 C37.9374093,10.551 38.5324352,10.299 38.9832124,9.813 Z M41.9944041,0.525 L45.3301554,0.525 L45.3301554,6.843 L47.1873575,4.233 L50.8837306,4.233 L50.8837306,4.377 L47.7643523,8.409 L51.388601,12.927 L51.388601,13.125 L47.6381347,13.125 L45.3301554,10.029 L45.3301554,13.125 L41.9944041,13.125 L41.9944041,0.525 Z M58.5830052,4.989 L58.5830052,0.525 L61.9007254,0.525 L61.9007254,13.125 L58.9436269,13.125 L58.7993782,12.171 C58.0420725,13.035 56.8520207,13.341 55.8603109,13.287 C53.2458031,13.125 51.785285,11.487 51.785285,8.679 C51.785285,5.961 53.5162694,4.035 56.1127461,4.035 C57.2487047,4.035 58.0961658,4.395 58.5830052,4.989 Z M56.8700518,6.717 C55.878342,6.717 55.0849741,7.437 55.0849741,8.679 C55.0849741,9.921 55.878342,10.623 56.8700518,10.623 C57.9879793,10.623 58.6551295,9.705 58.6551295,8.769 C58.6551295,7.689 58.0420725,6.717 56.8700518,6.717 Z M63.6497409,1.947 C63.6497409,0.831 64.5873575,0.273 65.5249741,0.273 C66.4445596,0.273 67.3821762,0.831 67.3821762,1.947 C67.3821762,3.045 66.4445596,3.603 65.5249741,3.603 C64.5873575,3.603 63.6497409,3.045 63.6497409,1.947 Z M63.8480829,13.125 L63.8480829,4.377 L67.1838342,4.377 L67.1838342,13.125 L63.8480829,13.125 Z M68.5001036,12.189 L69.5819689,9.777 C70.9343005,10.659 72.0161658,10.731 72.7374093,10.767 C73.3324352,10.767 73.6389637,10.623 73.6389637,10.335 C73.6389637,10.047 73.3504663,9.903 72.7013472,9.849 C70.9703627,9.795 68.8787565,9.093 68.8787565,6.933 C68.8787565,4.791 70.8982383,4.017 72.9898446,4.017 C74.4323316,4.017 75.7666321,4.449 76.6321244,5.097 L75.2256995,7.077 C74.7388601,6.771 73.7110881,6.519 72.9898446,6.537 C72.5210363,6.537 72.1964767,6.645 72.1964767,6.969 C72.1964767,7.131 72.3226943,7.383 72.8636269,7.401 C74.720829,7.455 76.9566839,7.977 76.9566839,10.335 C76.9566839,12.531 74.9552332,13.359 72.8095337,13.359 C71.2588601,13.359 69.5098446,12.927 68.5001036,12.189 Z M81.6627979,12.369 L81.6627979,16.833 L78.3450777,16.833 L78.3450777,4.233 L81.3021762,4.233 L81.4464249,5.187 C82.2037306,4.323 83.3937824,4.017 84.3854922,4.071 C87,4.233 88.4605181,5.871 88.4605181,8.679 C88.4605181,11.397 86.7295337,13.323 84.133057,13.323 C82.9970984,13.323 82.1496373,12.963 81.6627979,12.369 Z M83.3757513,10.641 C84.3674611,10.641 85.160829,9.921 85.160829,8.679 C85.160829,7.437 84.3674611,6.735 83.3757513,6.735 C82.2578238,6.735 81.5906736,7.653 81.5906736,8.589 C81.5906736,9.669 82.2037306,10.641 83.3757513,10.641 Z M89.9390674,0.507 L93.2207254,0.507 L93.2207254,13.125 L89.9390674,13.125 L89.9390674,0.507 Z M101.623212,5.187 L101.785492,4.233 L104.90487,4.233 L104.90487,13.125 L101.839585,13.125 L101.695337,12.171 C100.938031,13.035 99.7479793,13.341 98.7562694,13.287 C96.1417617,13.125 94.6812435,11.271 94.6812435,8.679 C94.6812435,6.051 96.412228,4.035 99.0087047,4.035 C100.270881,4.035 101.154404,4.467 101.623212,5.187 Z M99.7660104,6.717 C98.7743005,6.717 97.9809326,7.437 97.9809326,8.679 C97.9809326,9.921 98.7743005,10.623 99.7660104,10.623 C100.883938,10.623 101.605181,9.723 101.605181,8.679 C101.605181,7.491 100.938031,6.717 99.7660104,6.717 Z M112.982798,4.233 L116.534922,4.233 L111.017409,16.887 L107.55544,16.887 L109.358549,12.729 L105.824456,4.233 L109.340518,4.233 L110.097824,6.357 L111.071503,9.435 L112.153368,6.339 L112.982798,4.233 Z" id="path-1"></path>
        <circle id="path-3" cx="12" cy="12" r="12"></circle>
    </defs>
    <g id="Symbols" stroke="none" stroke-width="1" fill="none" fill-rule="evenodd">
        <g id="Material/Top-Nav-Logged-In" transform="translate(-64.000000, -20.000000)">
            <g id="Top-Nav">
                <g id="Branding/Alt-Logo" transform="translate(64.000000, 20.000000)">
                    <g id="Trackdisplay" transform="translate(28.549223, 5.250000)">
                        <mask id="mask-2" fill="white">
                            <use xlink:href="#path-1"></use>
                        </mask>
                        <use fill="#343434" xlink:href="#path-1"></use>
                        <g id="Palette/Black" mask="url(#mask-2)" fill="#343434">
                            <g transform="translate(-1.502591, -5.250000)" id="Rectangle">
                                <rect x="0" y="0" width="118" height="24"></rect>
                            </g>
                        </g>
                    </g>
                    <g id="Branding/Symbol">
                        <g id="Symbol">
                            <mask id="mask-4" fill="white">
                                <use xlink:href="#path-3"></use>
                            </mask>
                            <use id="Oval-2" fill="#00D976" xlink:href="#path-3"></use>
                            <g id="Palette/Green-Light" mask="url(#mask-4)" fill="#00C46C">
                                <rect id="Rectangle" x="0" y="0" width="24" height="24"></rect>
                            </g>
                            <g id="Group-2" mask="url(#mask-4)">
                                <g transform="translate(3.750000, 5.250000)">
                                    <circle id="Oval" fill="none" transform="translate(8.145874, 8.197130) rotate(-89.119190) translate(-8.145874, -8.197130) " cx="8.14587428" cy="8.19712987" r="1"></circle>
                                    <path d="M2.2212798,11.2383582 C0.781540961,8.43510511 1.50383695,5.00644823 3.95211872,3.02226274 C6.4004005,1.03807726 9.90431071,1.04164758 12.3485438,3.03081831 C14.7927769,5.01998903 15.5080841,8.45011077 14.0626355,11.250424 L15.4207675,11.8485783 C17.1465015,8.40992955 16.2289688,4.23259465 13.2210392,1.8336736 C10.2131096,-0.565247442 5.93633652,-0.530539202 2.96773753,1.91688449 C-0.000861465692,4.36430817 -0.850475202,8.55598439 0.930840609,11.9661716 L0.930840609,11.9661673 L2.2212798,11.2383582 Z" id="Shape" fill="#FFFFFF" fill-rule="nonzero"></path>
                                    <path d="M11.8641021,4.59128102 C10.0854535,2.75724894 7.23519905,2.4940011 5.1507236,3.9712373 C3.06624816,5.44847349 2.37019188,8.22493806 3.5112597,10.510814 L4.80250051,9.78255228 L4.80410315,9.78331127 C4.04964876,8.1943297 4.51844067,6.2938296 5.92529132,5.23797208 C7.33214196,4.18211455 9.28793711,4.26293431 10.6028771,5.43126499 C11.9178172,6.59959567 12.228209,8.53229415 11.345227,10.0536116 L12.7064047,10.6531115 C13.7748462,8.66452947 13.4342334,6.21322845 11.8641021,4.59128102 Z" id="Shape" fill="#FFFFFF" fill-rule="nonzero"></path>
                                    <path d="M9.82327553,8.19404528 C9.83425196,7.47373102 9.38415802,6.82681396 8.70495641,6.58669257 C8.0257548,6.34657118 7.26907618,6.56685217 6.82488631,7.1340104 C6.38069643,7.70116864 6.34815997,8.48858697 6.74404508,9.09045746 L6.74386964,9.09045746 L8.09442274,11.5485198 L9.53736792,9.10595756 L9.5368197,9.10595756 C9.71913332,8.83639823 9.81869936,8.51943666 9.82327553,8.19404528 Z M8.15447391,7.6692597 C8.46329835,7.67400904 8.70980016,7.9282104 8.7050516,8.23703486 C8.70030305,8.54585932 8.4461023,8.79236177 8.13727783,8.787614 C7.82845336,8.78286622 7.58195027,8.52866611 7.58669726,8.21984162 C7.58889446,8.07151124 7.64996857,7.93013874 7.7564657,7.8268668 C7.86296283,7.72359486 8.00614608,7.66689579 8.15447391,7.6692597 Z" id="Shape" fill="#FFFFFF" fill-rule="nonzero"></path>
                                    <path d="M8.09442274,11.5485204 L8.08609949,9.74942193 C8.60268071,9.79406832 9.11140115,9.60055572 9.46771127,9.22386944 C9.00995127,9.99875228 8.55218843,10.7736359 8.09442274,11.5485204 Z" id="Shape" fill="#FFFFFF" fill-rule="nonzero"></path>
                                </g>
                            </g>
                        </g>
                    </g>
                </g>
            </g>
        </g>
    </g>
</svg>