<?xml version="1.0" encoding="UTF-8"?>
<svg width="13px" height="10px" viewBox="0 0 13 10" version="1.1" xmlns="http://www.w3.org/2000/svg" xmlns:xlink="http://www.w3.org/1999/xlink">
    <!-- Generator: Sketch 52.4 (67378) - http://www.bohemiancoding.com/sketch -->
    <title>Ticket</title>
    <desc>Created with Sketch.</desc>
    <g id="Symbols" stroke="none" stroke-width="1" fill="none" fill-rule="evenodd">
        <g id="Icons/Ok" transform="translate(-4.000000, -5.000000)" fill="#00C46C" fill-rule="nonzero">
            <path d="M9.39821503,12.9344858 L15.2876169,5.29546245 C15.5434287,4.96365412 16.019789,4.90204679 16.3515973,5.15785863 C16.3699279,5.17199082 16.3876021,5.18695454 16.4045645,5.2027028 L16.4141942,5.2116433 C16.5479423,5.33581827 16.634971,5.46077126 16.6847509,5.59190373 C16.7345308,5.72303621 16.7458399,5.85921363 16.7183732,5.99676124 C16.6909065,6.13430885 16.625682,6.27190607 16.5142497,6.41644264 L10.1505697,14.6706427 C10.011566,14.8509415 9.80744229,14.9514595 9.59677569,14.9646211 C9.34748689,15.0431424 9.06433612,14.991532 8.85598177,14.804058 C8.83833082,14.7881759 8.82143035,14.7714791 8.80533548,14.754022 L4.26553491,9.82998127 C4.1393817,9.69315069 4.06277927,9.56245851 4.02328535,9.42802311 C3.98379143,9.29358772 3.98296406,9.15709902 4.02082529,9.02219472 C4.05868652,8.88729041 4.13369891,8.75567916 4.25818403,8.61732926 L4.27030553,8.6038577 C4.55235203,8.29039768 5.03510546,8.26493199 5.34856548,8.5469785 C5.36621643,8.56286056 5.3831169,8.57955736 5.39921177,8.59701448 L9.39821503,12.9344858 Z" id="Ticket"></path>
        </g>
    </g>
</svg>