<?xml version="1.0" encoding="UTF-8"?>
<svg width="12px" height="12px" viewBox="0 0 12 12" version="1.1" xmlns="http://www.w3.org/2000/svg" xmlns:xlink="http://www.w3.org/1999/xlink">
    <!-- Generator: Sketch 52.4 (67378) - http://www.bohemiancoding.com/sketch -->
    <title>X</title>
    <desc>Created with Sketch.</desc>
    <g id="Symbols" stroke="none" stroke-width="1" fill="none" fill-rule="evenodd">
        <g id="Icons/Delete" transform="translate(-4.000000, -4.000000)" fill="#FF6363" fill-rule="nonzero">
            <path d="M8.89322417,10 L4.22922078,5.33599661 C3.92359307,5.0303689 3.92359307,4.53484849 4.22922078,4.22922078 C4.53484849,3.92359307 5.0303689,3.92359307 5.33599661,4.22922078 L10,8.89322417 L14.6640034,4.22922078 C14.9696311,3.92359307 15.4651515,3.92359307 15.7707792,4.22922078 C16.0764069,4.53484849 16.0764069,5.0303689 15.7707792,5.33599661 L11.1067758,10 L15.7707792,14.6640034 C16.0764069,14.9696311 16.0764069,15.4651515 15.7707792,15.7707792 C15.4651515,16.0764069 14.9696311,16.0764069 14.6640034,15.7707792 L10,11.1067758 L5.33599661,15.7707792 C5.0303689,16.0764069 4.53484849,16.0764069 4.22922078,15.7707792 C3.92359307,15.4651515 3.92359307,14.9696311 4.22922078,14.6640034 L8.89322417,10 Z" id="X"></path>
        </g>
    </g>
</svg>
