<?xml version="1.0" encoding="UTF-8"?>
<svg width="32px" height="32px" viewBox="0 0 32 32" version="1.1" xmlns="http://www.w3.org/2000/svg" xmlns:xlink="http://www.w3.org/1999/xlink">
    <!-- Generator: Sketch 51.3 (57544) - http://www.bohemiancoding.com/sketch -->
    <title>Icon/Details/See</title>
    <desc>Created with Sketch.</desc>
    <defs></defs>
    <g id="Icon/Details/See" stroke="none" stroke-width="1" fill="none" fill-rule="evenodd">
        <g transform="translate(1.000000, 5.000000)" fill="#BDD4DA" fill-rule="nonzero" id="visto">
            <g>
                <path d="M15.6593407,3.49831731 L15.6593407,0.899567308 C15.6593407,0.433125 15.2967033,0.0666346154 14.8351648,0.0666346154 C14.3736264,0.0666346154 14.010989,0.433125 14.010989,0.899567308 L14.010989,3.49831731 C14.010989,3.96475962 14.3736264,4.33125 14.8351648,4.33125 C15.2967033,4.33125 15.6593407,3.96475962 15.6593407,3.49831731 Z" id="Shape"></path>
                <path d="M10.3846154,4.93096154 C10.4505495,4.93096154 10.5164835,4.93096154 10.5824176,4.89764423 C11.010989,4.764375 11.2747253,4.33125 11.1758242,3.86480769 L10.5164835,1.33269231 C10.3846154,0.899567308 9.95604396,0.633028846 9.49450549,0.732980769 C9.06593407,0.86625 8.8021978,1.299375 8.9010989,1.76581731 L9.56043956,4.29793269 C9.69230769,4.66442308 10.021978,4.93096154 10.3846154,4.93096154 Z" id="Shape"></path>
                <path d="M6.23076923,6.66346154 C6.36263736,6.66346154 6.52747253,6.63014423 6.62637363,6.56350962 C7.02197802,6.33028846 7.15384615,5.83052885 6.92307692,5.43072115 L5.63736264,3.16514423 C5.40659341,2.76533654 4.91208791,2.63206731 4.51648352,2.86528846 C4.12087912,3.09850962 3.98901099,3.59826923 4.21978022,3.99807692 L5.50549451,6.26365385 C5.67032967,6.496875 5.93406593,6.66346154 6.23076923,6.66346154 Z" id="Shape"></path>
                <path d="M2.63736264,9.42879808 C2.83516484,9.42879808 3.06593407,9.36216346 3.23076923,9.19557692 C3.56043956,8.86240385 3.56043956,8.32932692 3.23076923,8.02947115 L1.41758242,6.19701923 C1.08791209,5.86384615 0.56043956,5.86384615 0.263736264,6.19701923 C-0.0659340659,6.53019231 -0.0659340659,7.06326923 0.263736264,7.363125 L2.07692308,9.19557692 C2.24175824,9.32884615 2.43956044,9.42879808 2.63736264,9.42879808 Z" id="Shape"></path>
                <path d="M19.2857143,4.93096154 C19.6483516,4.93096154 19.978022,4.69774038 20.0769231,4.29793269 L20.7362637,1.76581731 C20.8681319,1.33269231 20.6043956,0.86625 20.1428571,0.732980769 C19.7142857,0.599711538 19.2527473,0.86625 19.1208791,1.33269231 L18.4615385,3.86480769 C18.3296703,4.29793269 18.5934066,4.764375 19.0549451,4.89764423 C19.1538462,4.89764423 19.2197802,4.93096154 19.2857143,4.93096154 Z" id="Shape"></path>
                <path d="M25.1538462,2.83197115 C24.7582418,2.59875 24.2637363,2.73201923 24.032967,3.13182692 L22.7472527,5.39740385 C22.5164835,5.79721154 22.6483516,6.29697115 23.043956,6.53019231 C23.1758242,6.59682692 23.3076923,6.63014423 23.4395604,6.63014423 C23.7362637,6.63014423 24,6.496875 24.1648352,6.19701923 L25.4505495,3.93144231 C25.6813187,3.59826923 25.5494505,3.06519231 25.1538462,2.83197115 Z" id="Shape"></path>
                <path d="M28.2527473,6.16370192 L26.4395604,7.99615385 C26.1098901,8.32932692 26.1098901,8.86240385 26.4395604,9.16225962 C26.6043956,9.32884615 26.8021978,9.39548077 27.032967,9.39548077 C27.2637363,9.39548077 27.4615385,9.32884615 27.6263736,9.16225962 L29.4395604,7.32980769 C29.7692308,6.99663462 29.7692308,6.46355769 29.4395604,6.16370192 C29.1098901,5.83052885 28.5824176,5.83052885 28.2527473,6.16370192 Z" id="Shape"></path>
                <path d="M28.2197802,13.9266346 C28.3846154,13.6600962 28.3846154,13.3269231 28.2197802,13.0603846 C25.4505495,8.49591346 20.3406593,5.66394231 14.8351648,5.66394231 C9.32967033,5.66394231 4.21978022,8.49591346 1.45054945,13.0270673 C1.28571429,13.2936058 1.28571429,13.6267788 1.45054945,13.8933173 C4.21978022,18.4577885 9.32967033,21.2897596 14.8351648,21.2897596 C20.3406593,21.2897596 25.4505495,18.4577885 28.2197802,13.9266346 Z M14.8351648,19.6238942 C10.0879121,19.6238942 5.67032967,17.2916827 3.13186813,13.4935096 C5.67032967,9.69533654 10.0879121,7.32980769 14.8351648,7.32980769 C19.5824176,7.32980769 24,9.66201923 26.5384615,13.4601923 C24,17.2583654 19.5824176,19.6238942 14.8351648,19.6238942 Z" id="Shape"></path>
                <path d="M14.8351648,9.29552885 C12.5604396,9.29552885 10.7142857,11.1612981 10.7142857,13.4601923 C10.7142857,15.7590865 12.5604396,17.6248558 14.8351648,17.6248558 C17.1098901,17.6248558 18.956044,15.7590865 18.956044,13.4601923 C18.956044,11.1612981 17.1098901,9.29552885 14.8351648,9.29552885 Z M14.8351648,15.9589904 C13.4835165,15.9589904 12.3626374,14.8262019 12.3626374,13.4601923 C12.3626374,12.0941827 13.4835165,10.9613942 14.8351648,10.9613942 C16.1868132,10.9613942 17.3076923,12.0941827 17.3076923,13.4601923 C17.3076923,14.8262019 16.1868132,15.9589904 14.8351648,15.9589904 Z" id="Shape"></path>
            </g>
        </g>
    </g>
</svg>