<svg width="45" height="33" viewBox="0 0 45 33" xmlns="http://www.w3.org/2000/svg"><title>527F904A-E35E-443A-BB17-9754C8F6E0AF</title><g fill="#BDD4DA" fill-rule="nonzero"><path d="M23.989 5.747V1.85c0-.7-.544-1.249-1.236-1.249a1.23 1.23 0 0 0-1.237 1.25v3.897c0 .7.544 1.25 1.237 1.25a1.23 1.23 0 0 0 1.236-1.25zM16.077 7.896c.099 0 .198 0 .297-.05.642-.2 1.038-.85.89-1.549l-.99-3.798a1.297 1.297 0 0 0-1.532-.9c-.643.2-1.039.85-.89 1.55l.989 3.798c.197.55.692.95 1.236.95zM9.846 10.495c.198 0 .445-.05.594-.15.593-.35.79-1.1.445-1.699L8.956 5.248c-.346-.6-1.088-.8-1.681-.45a1.24 1.24 0 0 0-.445 1.7l1.928 3.397c.247.35.643.6 1.088.6zM4.456 14.643c.297 0 .643-.1.89-.35.495-.5.495-1.299 0-1.749l-2.72-2.748c-.494-.5-1.285-.5-1.73 0-.495.5-.495 1.299 0 1.749l2.72 2.748c.247.2.543.35.84.35zM29.429 7.896a1.21 1.21 0 0 0 1.186-.95l.99-3.797c.197-.65-.198-1.35-.89-1.55-.644-.2-1.336.2-1.534.9l-.989 3.798c-.197.65.198 1.35.89 1.55.149 0 .248.05.347.05zM38.23 4.748a1.213 1.213 0 0 0-1.68.45l-1.93 3.398a1.24 1.24 0 0 0 .446 1.7c.198.1.396.15.593.15.445 0 .841-.2 1.088-.65l1.929-3.399c.346-.5.148-1.3-.445-1.649zM42.88 9.746l-2.72 2.748c-.495.5-.495 1.3 0 1.75.247.25.543.35.89.35.346 0 .642-.1.89-.35l2.72-2.75c.494-.499.494-1.299 0-1.748-.495-.5-1.286-.5-1.78 0zM42.83 21.39c.247-.4.247-.9 0-1.3C38.676 13.245 31.01 8.997 22.753 8.997c-8.258 0-15.923 4.248-20.077 11.045-.247.4-.247.9 0 1.299 4.154 6.847 11.819 11.095 20.077 11.095 8.258 0 15.923-4.248 20.077-11.045zm-20.077 8.546c-7.121 0-13.748-3.498-17.555-9.196 3.807-5.697 10.434-9.245 17.555-9.245 7.12 0 13.747 3.498 17.555 9.195-3.808 5.698-10.434 9.246-17.555 9.246z"/><path d="M22.753 14.443c-3.412 0-6.182 2.799-6.182 6.247 0 3.449 2.77 6.247 6.182 6.247 3.412 0 6.181-2.798 6.181-6.247 0-3.448-2.77-6.247-6.181-6.247zm0 9.995c-2.028 0-3.709-1.699-3.709-3.748 0-2.049 1.681-3.748 3.709-3.748 2.027 0 3.709 1.7 3.709 3.748 0 2.05-1.682 3.748-3.71 3.748z"/></g></svg>