<?xml version="1.0" encoding="UTF-8"?>
<svg width="31px" height="34px" viewBox="0 0 31 34" version="1.1" xmlns="http://www.w3.org/2000/svg" xmlns:xlink="http://www.w3.org/1999/xlink">
    <!-- Generator: Sketch 50.2 (55047) - http://www.bohemiancoding.com/sketch -->
    <title>noun_782643_cc@2x</title>
    <desc>Created with Sketch.</desc>
    <defs></defs>
    <g id="Green" stroke="none" stroke-width="1" fill="none" fill-rule="evenodd">
        <g id="Landing" transform="translate(-428.000000, -252.000000)" fill="#BDD4DA" fill-rule="nonzero">
            <g id="Campaign-" transform="translate(237.000000, 140.000000)">
                <g id="Ptos-Contacto" transform="translate(178.000000, 98.000000)">
                    <g id="Group-4">
                        <g id="Rota-icn" transform="translate(0.000000, 3.000000)">
                            <g id="noun_782643_cc" transform="translate(13.000000, 11.000000)">
                                <path d="M27.3805483,15.9011124 C28.4201797,14.3480064 29.4112949,12.6292967 29.9707787,10.8398036 C30.2090829,10.0775548 30.413175,9.10546262 29.9157741,8.39910317 C29.51747,7.83298336 28.8506313,7.73890041 28.2088617,7.83696492 C28.6220598,6.94878059 28.8861704,5.99040271 28.5785575,5.15766539 C28.2927695,4.38524142 27.5128248,4.0917852 26.7433502,4.1285041 C26.6612119,4.13219073 26.5811382,4.14678981 26.5016543,4.16566539 C26.5075529,4.13351792 26.5150737,4.10137045 26.5206773,4.06907552 C26.6224285,3.46269764 26.5134515,2.70723221 25.9401059,2.36245801 C25.1544101,1.88968382 24.3250644,2.28076216 23.6710552,2.81694649 C23.7287142,2.40448566 23.727682,1.98568382 23.638023,1.56511239 C23.4662257,0.760983358 22.8738571,0.0335363533 22.0049907,0.00124142241 C20.8976727,-0.0400489002 20.1672764,0.95711239 19.5583916,1.73071608 C18.4661151,3.11880824 17.2156082,4.37418151 15.9543363,5.60699257 C14.8237188,6.71209857 13.7214147,7.86881746 12.5130829,8.88898336 C11.8096727,9.48282668 11.0916635,10.0692967 10.5100598,10.7715271 C10.4633133,10.1014442 10.494281,9.41912161 10.5665391,8.69831055 C10.7051566,7.31464234 11.0042165,5.82081746 10.370705,4.50881746 C9.71477873,3.15021838 7.96834555,2.97797875 6.84510131,3.83711239 C5.65461283,4.74785893 5.34301836,6.56743497 5.01358057,7.92868843 C4.55422573,9.82730594 3.86069578,11.6967253 3.03739624,13.4660156 C2.2064285,15.2518221 1.91120269,17.0177207 2.00926721,18.9822552 C2.0579308,19.9570018 2.01560822,20.794458 1.65756214,21.7143474 C1.31337781,22.5988451 0.728234951,23.3781999 0.151350159,24.122458 C-0.413589933,24.8512322 0.744308684,25.6883935 1.30747919,24.9616838 C2.28443772,23.7010018 3.09225338,22.3785317 3.39794924,20.794458 C3.5619308,19.9440248 3.41638242,19.0893152 3.4019308,18.2346055 C3.38644693,17.3185502 3.49232712,16.4011677 3.74464048,15.5202092 C3.99046537,14.6616654 4.43050223,13.8743474 4.78427182,13.0582737 C5.16753449,12.173776 5.4904838,11.2642092 5.78880638,10.3481539 C6.26394002,8.88942575 6.50504601,7.33882668 7.09372804,5.92079903 C7.31227182,5.39405248 7.65232712,4.82881746 8.25383864,4.724117 C8.87879716,4.61514004 9.1508709,5.14513082 9.25925799,5.6563935 C9.53737781,6.96632898 9.12624417,8.40647645 9.04764509,9.72172069 C8.96403219,11.1208728 9.23433633,12.4151769 9.75990315,13.7085963 C10.5137465,15.5637115 11.1295621,17.3734073 11.3571013,19.3762829 C11.4612119,20.2935179 12.8715714,20.0653889 12.7679032,19.1521354 C12.5287142,17.0450018 11.8921059,15.0775179 11.0682165,13.133776 C10.9986128,12.9699419 10.9375621,12.8069926 10.8822626,12.6447806 C10.9820967,12.5773889 11.0693962,12.4816838 11.1336912,12.3532414 C11.6191474,11.3829188 12.5933041,10.6862921 13.4051013,10.0055917 C14.3395898,9.22166539 15.183682,8.33451331 16.0596267,7.48702944 C17.0256727,6.55268843 17.9834608,5.61126907 18.9093962,4.63681746 C19.4134331,4.10623681 19.898152,3.55781285 20.3682718,2.99655939 C20.7615621,2.52732437 21.0939492,1.99187737 21.570705,1.60197875 C22.0355161,1.22181285 22.2049538,1.5923935 22.2760322,2.05587737 C22.4299861,3.06159165 21.7553317,4.18572069 21.3136727,5.03630133 C20.8375068,5.95353635 20.2582626,6.82122299 19.6644193,7.67032898 C18.7813962,8.73370225 17.9076635,9.80489119 17.0778755,10.910882 C16.4499677,10.6547345 15.797728,10.4748267 15.1348709,10.4050755 C14.219258,10.3087806 14.0757741,11.7303474 14.9937465,11.8269373 C16.5436082,11.9898866 17.9399585,12.8934073 19.110834,13.8685963 C20.0108156,14.6180156 20.9239216,15.6048543 21.4180783,16.7239695 C21.4354792,16.7833981 21.4604009,16.83914 21.4906313,16.8920801 C21.5988709,17.1638589 21.6818939,17.443011 21.732917,17.7280617 C21.8957188,18.6345317 23.3068156,18.4123013 23.1437188,17.5037668 C23.0881244,17.1934995 23.0039216,16.8934073 22.8990737,16.6018682 C24.1040138,14.8692967 25.1384838,13.0243566 26.2580414,11.2367806 C26.6949815,10.5389741 27.1435714,9.77421838 27.9027234,9.39036585 C28.0904469,9.29554557 28.3548525,9.22608935 28.5680875,9.22225525 C28.6561244,9.22063313 28.7359032,9.25278059 28.7674608,9.25971147 C28.7727695,9.27696492 28.7771935,9.29834741 28.783387,9.33314926 C28.7990184,9.42133359 28.7894331,9.56938889 28.7714423,9.72540732 C28.7208617,10.1636746 28.559387,10.5877852 28.4027787,10.9968543 C28.0379492,11.9493336 27.5542626,12.8571308 27.0434423,13.7380893 C25.523811,16.359435 23.6921428,18.8471769 21.732622,21.150882 C20.2733041,22.8664949 18.6491197,24.4367069 16.8802718,25.8306976 C15.2403087,27.1233797 13.4117373,28.1563751 11.7387419,29.4045225 C10.8698755,30.0527806 10.0546866,30.7781631 9.34493541,31.5971861 C9.11385707,31.6176838 8.90165431,31.7567437 8.81170039,32.0553612 C8.75610592,32.2395456 8.71142389,32.4197483 8.67544232,32.6086516 C8.53697228,33.3369834 9.56465891,33.6342737 9.96443772,33.0988267 C11.2214331,31.4147714 12.9780414,30.2242829 14.7075161,29.0722829 C16.4905207,27.8847437 18.2074608,26.6777391 19.78947,25.2260893 C22.7637004,22.4962092 25.1452672,19.241647 27.3805483,15.9011124 Z M18.4088985,11.5855364 C18.7465944,11.2066976 19.0997741,10.8414258 19.4236082,10.4497576 C19.8888617,9.88747184 20.2936543,9.26074373 20.7127511,8.6635087 C20.817599,8.51397875 20.9214147,8.363564 21.0241981,8.21241193 C21.8790552,7.16024603 22.7339124,6.10808013 23.5530829,5.02863313 C23.8652672,4.61764695 24.1979492,4.22804327 24.5931566,3.89462391 C24.751682,3.76087276 24.913599,3.66634741 25.1053041,3.58996032 C25.1137096,3.62771147 25.1237373,3.65676216 25.1269815,3.63670686 C25.1218202,3.92854096 25.0454331,4.20385893 24.9591658,4.4800617 C24.734576,5.19792345 24.4279953,5.89484511 24.0780598,6.57348105 C23.6244561,7.24415386 23.2028525,7.93827368 22.7377465,8.60054096 C21.7855621,9.9563382 20.7677557,11.2645041 19.9415068,12.7018497 C19.4700598,12.2967622 18.9549631,11.9170387 18.4088985,11.5855364 Z M21.0413041,13.7531308 C22.1390368,12.5512875 23.0223548,11.102587 23.874705,9.73455018 C24.3698939,8.93941654 24.9013594,8.09753635 25.3635161,7.22159165 C25.7171382,6.68924142 26.1021704,6.16706631 26.5824654,5.75416308 C26.7703363,5.59283589 26.9107234,5.50538889 27.1488801,5.57971147 C27.262576,5.61495571 27.2698018,5.64149949 27.2692119,5.83055018 C27.266705,6.96500179 26.4442903,8.14870686 25.873599,9.08319534 C24.6462442,11.0924119 23.2900045,13.0231769 22.0974515,15.0533336 C21.7843824,14.5920617 21.4245667,14.1592506 21.0413041,13.7531308 Z" id="Shape"></path>
                            </g>
                        </g>
                    </g>
                </g>
            </g>
        </g>
    </g>
</svg>