<?xml version="1.0" encoding="UTF-8"?>
<svg width="32px" height="32px" viewBox="0 0 32 32" version="1.1" xmlns="http://www.w3.org/2000/svg" xmlns:xlink="http://www.w3.org/1999/xlink">
    <!-- Generator: Sketch 51.3 (57544) - http://www.bohemiancoding.com/sketch -->
    <title>Icon/Details/Efectividad</title>
    <desc>Created with Sketch.</desc>
    <defs></defs>
    <g id="Icon/Details/Efectividad" stroke="none" stroke-width="1" fill="none" fill-rule="evenodd">
        <path d="M26.3387761,8.51061434 L20.2463959,8.00689608 C19.9163025,7.97177397 19.5860465,8.07178429 19.3291625,8.28465883 C19.0722785,8.49753338 18.9100932,8.80559901 18.8787187,9.14026216 C18.830652,9.84433072 19.345474,10.4588701 20.039172,10.5254874 L23.4790874,10.819323 L17.2209281,17.1577778 L13.9882366,13.8836091 C13.7613871,13.642361 13.4468284,13.5058204 13.1178966,13.5058204 C12.7889648,13.5058204 12.474406,13.642361 12.2475565,13.8836091 L4.49738579,21.7332186 C4.10818552,22.028864 3.92498637,22.5272577 4.02854248,23.0087079 C4.13209859,23.490158 4.50338331,23.8662065 4.97873446,23.9710913 C5.45408561,24.0759761 5.94616564,23.8904264 6.23806585,23.4962325 L13.1178966,16.5701065 L16.3505881,19.8022986 C16.5712094,20.0524704 16.8899116,20.1908095 17.2209281,20.1800873 C17.5498599,20.1800873 17.8644186,20.0435467 18.0912682,19.8022986 L25.2197674,12.5823369 L25.5098808,16.0663882 C25.5535839,16.7288938 26.097654,17.2432078 26.7532237,17.2417308 L26.877558,17.2417308 C27.5546394,17.1543502 28.0460768,16.5459979 27.9965666,15.8565056 L27.4992294,9.64398042 C27.4393818,9.0289754 26.9477644,8.54883339 26.3387761,8.51061434 Z" id="Shape" fill="#BDD4DA" fill-rule="nonzero"></path>
    </g>
</svg>
