<svg width="24" height="16" viewBox="0 0 24 16" xmlns="http://www.w3.org/2000/svg"><title>CD2C025A-DEAE-4BC7-ABC7-1024845287A0</title><path d="M22.339.51L16.246.008c-.33-.035-.66.065-.917.278-.257.213-.419.52-.45.855a1.296 1.296 0 0 0 1.16 1.385l3.44.294-6.258 6.339-3.233-3.274a1.195 1.195 0 0 0-1.74 0l-7.75 7.85c-.39.295-.573.793-.47 1.275.104.481.475.857.95.962.476.105.968-.08 1.26-.475l6.88-6.926 3.233 3.232c.22.25.539.389.87.378.329 0 .643-.136.87-.378l7.129-7.22.29 3.484a1.25 1.25 0 0 0 1.243 1.176h.125a1.297 1.297 0 0 0 1.119-1.385l-.498-6.213A1.25 1.25 0 0 0 22.34.511z" fill="#00C46C" fill-rule="nonzero"/></svg>
