<svg width="22" height="24" viewBox="0 0 22 24" xmlns="http://www.w3.org/2000/svg"><title>B85EED6F-A231-4240-A938-B71B22A89DAA</title><path d="M21.985 10.445c.01.046.015.094.015.143v9.883C22 22.656 17.113 24 11 24S0 22.656 0 20.47v-9.882c0-.049.005-.097.015-.143a1.442 1.442 0 0 1-.015-.21c0-2.185 4.887-3.53 11-3.53s11 1.345 11 3.53c0 .07-.005.14-.015.21zm-1.452 1.662c-1.894 1.055-5.439 1.658-9.533 1.658-4.094 0-7.639-.603-9.533-1.658v8.364c0 .105.135.287.484.514.443.288 1.123.565 1.99.803 1.843.507 4.363.8 7.059.8 2.696 0 5.216-.293 7.058-.8.868-.238 1.548-.515 1.991-.803.349-.227.484-.409.484-.514v-8.364zM11 12.353c2.696 0 5.216-.293 7.058-.8.868-.238 1.548-.516 1.991-.804.349-.226.484-.408.484-.514 0-.105-.135-.287-.484-.514-.443-.288-1.123-.565-1.99-.804-1.843-.506-4.363-.8-7.059-.8-2.696 0-5.216.294-7.058.8-.868.24-1.548.516-1.991.804-.349.227-.484.409-.484.514 0 .106.135.288.484.514.443.288 1.123.566 1.99.804 1.843.507 4.363.8 7.059.8zm.733-9.943v2.531a.72.72 0 0 1-.733.706.72.72 0 0 1-.733-.706V2.41l-.612.589a.754.754 0 0 1-1.037 0 .687.687 0 0 1 0-.998L10.48.207a.754.754 0 0 1 1.038 0l1.833 1.764a.687.687 0 0 1 0 .999.754.754 0 0 1-1.037 0l-.582-.56z" fill="#BDD4DA" fill-rule="nonzero"/></svg>