<?xml version="1.0" encoding="UTF-8"?>
<svg width="32px" height="32px" viewBox="0 0 32 32" version="1.1" xmlns="http://www.w3.org/2000/svg" xmlns:xlink="http://www.w3.org/1999/xlink">
    <!-- Generator: Sketch 51.3 (57544) - http://www.bohemiancoding.com/sketch -->
    <title>Icon/Details/Un-Extraidas</title>
    <desc>Created with Sketch.</desc>
    <defs></defs>
    <g id="Icon/Details/Un-Extraidas" stroke="none" stroke-width="1" fill="none" fill-rule="evenodd">
        <g id="Group" transform="translate(1.500000, 4.000000)" fill="#BDD4DA" fill-rule="nonzero" stroke="#BDD4DA" stroke-width="0.6">
            <g id="noun_Empty-hand_402331" transform="translate(0.000000, 14.000000)">
                <path d="M28.3322368,8.36538462 C27.441886,8.14102564 26.0427632,8.14102564 24.2938596,8.17307692 C21.495614,8.23717949 17.6162281,8.30128205 13.8004386,7.27564103 L12.0197368,6.79487179 L1.74890351,4.35897436 C1.55811404,4.26282051 1.14473684,4.16666667 1.01754386,4.07051282 C1.01754386,4.00641026 1.04934211,3.87820513 1.1129386,3.65384615 C1.4627193,2.40384615 3.37061404,2.46794872 3.84758772,2.59615385 C3.87938596,2.59615385 3.87938596,2.59615385 3.91118421,2.59615385 L9.18969298,3.42948718 C9.22149123,3.46153846 9.22149123,3.49358974 9.25328947,3.55769231 C9.57127193,4.03846154 10.1754386,4.13461538 10.7796053,4.19871795 L15.5811404,5.16025641 L15.6129386,5.16025641 C15.8037281,5.19230769 16.7894737,5.28846154 17.9342105,5.28846154 C19.1743421,5.28846154 20.5734649,5.16025641 21.4002193,4.6474359 C21.622807,4.51923077 21.6864035,4.19871795 21.5592105,3.97435897 C21.4320175,3.75 21.1140351,3.68589744 20.8914474,3.81410256 C19.810307,4.48717949 16.8530702,4.29487179 15.7401316,4.16666667 L10.9385965,3.20512821 C10.6524123,3.17307692 10.1118421,3.07692308 10.0482456,2.98076923 C10.0482456,2.94871795 9.95285088,2.82051282 10.1118421,2.21153846 C10.2708333,1.57051282 11.1929825,0.993589744 12.560307,1.15384615 L15.9945175,1.82692308 L16.0899123,1.79487179 C16.1535088,1.76282051 23.4035088,-0.320512821 27.9188596,3.17307692 C28.1414474,3.33333333 28.4276316,3.30128205 28.5866228,3.07692308 C28.745614,2.8525641 28.7138158,2.56410256 28.4912281,2.40384615 C26.4561404,0.833333333 23.6260965,0.0641025641 20.2872807,0.192307692 C18.0932018,0.288461538 16.4078947,0.705128205 15.9627193,0.833333333 L12.7510965,0.192307692 L12.7192982,0.192307692 C10.7796053,-0.0320512821 9.47587719,0.897435897 9.22149123,1.95512821 C9.18969298,2.08333333 9.15789474,2.24358974 9.12609649,2.40384615 L4.10197368,1.63461538 C2.95723684,1.37820513 0.667763158,1.6025641 0.190789474,3.42948718 C0.0953947368,3.81410256 -0.0317982456,4.29487179 0.254385965,4.67948718 C0.476973684,4.96794872 0.890350877,5.09615385 1.49451754,5.25641026 L11.7971491,7.69230769 L13.5778509,8.17307692 C17.5526316,9.23076923 21.4638158,9.16666667 24.3256579,9.1025641 C26.0109649,9.07051282 27.3464912,9.03846154 28.1096491,9.26282051 C28.1414474,9.26282051 28.2050439,9.29487179 28.2368421,9.29487179 C28.4594298,9.29487179 28.6502193,9.16666667 28.6820175,8.94230769 C28.745614,8.68589744 28.5866228,8.42948718 28.3322368,8.36538462 Z" id="Shape"></path>
            </g>
            <path d="M12.8458278,1 C11.7775676,1 11.39726,1.07344079 11.0063303,1.28251225 C10.6917099,1.45077309 10.4507731,1.69170989 10.2825123,2.0063303 C10.0734408,2.39725995 10,2.77756757 10,3.8458278 L10,7.1541722 C10,8.22243243 10.0734408,8.60274005 10.2825123,8.9936697 C10.4507731,9.30829011 10.6917099,9.54922691 11.0063303,9.71748775 C11.39726,9.92655921 11.7775676,10 12.8458278,10 L16.1541722,10 C17.2224324,10 17.60274,9.92655921 17.9936697,9.71748775 C18.3082901,9.54922691 18.5492269,9.30829011 18.7174877,8.9936697 C18.9265592,8.60274005 19,8.22243243 19,7.1541722 L19,3.8458278 C19,2.77756757 18.9265592,2.39725995 18.7174877,2.0063303 C18.5492269,1.69170989 18.3082901,1.45077309 17.9936697,1.28251225 C17.60274,1.07344079 17.2224324,1 16.1541722,1 L12.8458278,1 Z M12.8458278,0 L16.1541722,4.4408921e-16 C17.4914503,2.22044605e-16 17.9763797,0.139238417 18.4652686,0.400699056 C18.9541574,0.662159695 19.3378403,1.04584256 19.5993009,1.53473144 C19.8607616,2.02362033 20,2.50854969 20,3.8458278 L20,7.1541722 C20,8.49145031 19.8607616,8.97637967 19.5993009,9.46526856 C19.3378403,9.95415744 18.9541574,10.3378403 18.4652686,10.5993009 C17.9763797,10.8607616 17.4914503,11 16.1541722,11 L12.8458278,11 C11.5085497,11 11.0236203,10.8607616 10.5347314,10.5993009 C10.0458426,10.3378403 9.66215969,9.95415744 9.40069906,9.46526856 C9.13923842,8.97637967 9,8.49145031 9,7.1541722 L9,3.8458278 C9,2.50854969 9.13923842,2.02362033 9.40069906,1.53473144 C9.66215969,1.04584256 10.0458426,0.662159695 10.5347314,0.400699056 C11.0236203,0.139238417 11.5085497,2.22044605e-16 12.8458278,0 Z" id="Rectangle-5"></path>
        </g>
    </g>
</svg>
