<svg width="24" height="24" viewBox="0 0 24 24" xmlns="http://www.w3.org/2000/svg"><title>7795186D-F25B-4715-8F34-F6D0A32BDDD7</title><path d="M12.053 0H12C5.387 0 .027 5.333 0 11.947-.027 18.587 5.333 23.973 11.947 24H12c6.613 0 11.973-5.333 12-11.947C24.027 5.413 18.667.027 12.053 0zM12 22.4h-.027a10.245 10.245 0 0 1-7.333-3.067 10.326 10.326 0 0 1-3.04-7.36C1.627 6.24 6.293 1.6 12 1.6h.027c2.773 0 5.386 1.093 7.333 3.067a10.326 10.326 0 0 1 3.04 7.36C22.373 17.76 17.707 22.4 12 22.4zm5.653-5.6c.32.32.32.827 0 1.12a7.873 7.873 0 0 1-5.626 2.347c-2.054 0-4.107-.8-5.68-2.374-.32-.32-.32-.826 0-1.12.32-.32.826-.32 1.12 0 2.48 2.507 6.533 2.507 9.04.027.346-.293.853-.293 1.146 0zM5.6 13.307c-.88 0-1.6-.72-1.6-1.6 0-.88.72-1.6 1.6-1.6.88 0 1.6.72 1.6 1.6 0 .88-.72 1.6-1.6 1.6zM20 11.76c0 .88-.72 1.6-1.6 1.6-.88 0-1.6-.72-1.6-1.6 0-.88.72-1.6 1.6-1.6.88 0 1.6.72 1.6 1.6z" fill="#BDD4DA" fill-rule="nonzero"/></svg>