<?xml version="1.0" encoding="UTF-8"?>
<svg width="32px" height="32px" viewBox="0 0 32 32" version="1.1" xmlns="http://www.w3.org/2000/svg" xmlns:xlink="http://www.w3.org/1999/xlink">
    <!-- Generator: Sketch 51.3 (57544) - http://www.bohemiancoding.com/sketch -->
    <title>Icon/Details/Felicidad</title>
    <desc>Created with Sketch.</desc>
    <defs></defs>
    <g id="Icon/Details/Felicidad" stroke="none" stroke-width="1" fill="none" fill-rule="evenodd">
        <path d="M16.0533329,4 C16.0266664,4 16.0266664,4 16,4 C9.38672127,4 4.02676552,9.33333333 4.00009907,15.9466667 C3.97343263,22.5866667 9.33338837,27.9733333 15.9466671,28 C15.9733336,28 15.9733336,28 16,28 C22.6132787,28 27.9732345,22.6666667 27.9999009,16.0533333 C28.0265674,9.41333333 22.6666116,4.02666667 16.0533329,4 Z M16,26.4 L15.9733336,26.4 C13.2000231,26.4 10.5867114,25.3066667 8.64006076,23.3333333 C6.66674372,21.36 5.60008586,18.7466667 5.60008586,15.9733333 C5.62675231,10.24 10.2933804,5.6 16,5.6 L16.0266664,5.6 C18.7999769,5.6 21.4132886,6.69333333 23.3599392,8.66666667 C25.3332563,10.64 26.3999141,13.2533333 26.3999141,16.0266667 C26.3732477,21.76 21.7066196,26.4 16,26.4 Z M21.6532867,20.8 C21.973284,21.12 21.973284,21.6266667 21.6532867,21.92 C20.1066328,23.4933333 18.0533164,24.2666667 16.0266664,24.2666667 C13.9733501,24.2666667 11.9200337,23.4666667 10.3467133,21.8933333 C10.026716,21.5733333 10.026716,21.0666667 10.3467133,20.7733333 C10.6667107,20.4533333 11.1733732,20.4533333 11.4667041,20.7733333 C13.9466836,23.28 17.9999835,23.28 20.5066295,20.8 C20.8532933,20.5066667 21.3599557,20.5066667 21.6532867,20.8 Z M9.60005284,17.3066667 C9.60005284,17.3066667 9.60005284,17.3066667 9.60005284,17.3066667 C8.7200601,17.3066667 8.00006605,16.5866667 8.00006605,15.7066667 C8.00006605,14.8266667 8.7200601,14.1066667 9.60005284,14.1066667 C9.60005284,14.1066667 9.60005284,14.1066667 9.60005284,14.1066667 C10.4800456,14.1066667 11.2000396,14.8266667 11.2000396,15.7066667 C11.2000396,16.5866667 10.4800456,17.3066667 9.60005284,17.3066667 Z M23.999934,15.76 C23.999934,16.64 23.2799399,17.36 22.3999472,17.36 C22.3999472,17.36 22.3999472,17.36 22.3999472,17.36 C21.5199544,17.36 20.7999604,16.64 20.7999604,15.76 C20.7999604,14.88 21.5199544,14.16 22.3999472,14.16 C22.3999472,14.16 22.3999472,14.16 22.3999472,14.16 C23.2799399,14.16 23.999934,14.88 23.999934,15.76 Z" id="Shape" stroke="#BDD4DA" stroke-width="0.6" fill="#BDD4DA" fill-rule="nonzero"></path>
    </g>
</svg>