<?xml version="1.0" encoding="UTF-8"?>
<svg width="89px" height="62px" viewBox="0 0 89 62" version="1.1" xmlns="http://www.w3.org/2000/svg" xmlns:xlink="http://www.w3.org/1999/xlink">
    <!-- Generator: Sketch 49.3 (51167) - http://www.bohemiancoding.com/sketch -->
    <title>Branding/Symbol Copy</title>
    <desc>Created with Sketch.</desc>
    <defs>
        <circle id="path-1" cx="142.5" cy="142.5" r="142.5"></circle>
    </defs>
    <g id="Green" stroke="none" stroke-width="1" fill="none" fill-rule="evenodd">
        <g id="Login-User" transform="translate(-460.000000, -100.000000)">
            <g id="Branding/Symbol" transform="translate(287.000000, -120.000000)">
                <g id="Symbol">
                    <mask id="mask-2" fill="white">
                        <use xlink:href="#path-1"></use>
                    </mask>
                    <use id="Oval-2" fill="#00D976" xlink:href="#path-1"></use>
                    <g id="Palette/Green-Light" mask="url(#mask-2)" fill="#00C46C">
                        <rect id="Rectangle" x="0" y="0" width="285" height="285"></rect>
                    </g>
                    <g id="Group-2" mask="url(#mask-2)">
                        <g transform="translate(44.531250, 62.343750)">
                            <circle id="Oval" fill="none" transform="translate(96.732257, 97.340917) rotate(-89.119190) translate(-96.732257, -97.340917) " cx="96.7322571" cy="97.3409172" r="8.78725888"></circle>
                            <path d="M26.3776976,133.455503 C9.28079891,100.166873 17.8580638,59.4515727 46.9314099,35.8893701 C76.0047559,12.3271675 117.61369,12.369565 146.638958,35.9909674 C175.664226,59.6123698 184.158499,100.345065 166.993797,133.598785 L183.121614,140.701867 C203.614705,99.8679134 192.719005,50.2620615 156.999841,21.7748741 C121.280677,-6.71231338 70.4939961,-6.30015303 35.2418831,22.7630033 C-0.0102299051,51.8261596 -10.099393,101.602315 11.0537322,142.098287 L11.0537322,142.098237 L26.3776976,133.455503 Z" id="Shape" fill="#FFFFFF" fill-rule="nonzero"></path>
                            <path d="M140.886213,54.5214621 C119.76476,32.7423312 85.9179887,29.6162631 61.1648428,47.1584429 C36.4116969,64.7006227 28.1460286,97.6711394 41.6962089,124.815916 L57.0296935,116.167808 L57.0487249,116.176821 C48.089579,97.3076652 53.6564829,74.7392265 70.3628344,62.2009184 C87.0691858,49.6626103 110.294253,50.6223449 125.909166,64.4962717 C141.524079,78.3701985 145.209981,101.320993 134.724571,119.386637 L150.888555,126.505699 C163.576299,102.891287 159.531522,73.7820878 140.886213,54.5214621 Z" id="Shape" fill="#FFFFFF" fill-rule="nonzero"></path>
                            <path d="M116.651397,97.3042877 C116.781742,88.7505559 111.436876,81.0684158 103.371357,78.2169742 C95.3058382,75.3655327 86.3202796,77.9813695 81.0455249,84.7163735 C75.7707701,91.4513776 75.3843996,100.80197 80.0855353,107.949182 L80.083452,107.949182 L96.1212701,137.138673 L113.256244,108.133246 L113.249734,108.133246 C115.414708,104.932229 116.597055,101.16831 116.651397,97.3042877 Z M96.8343777,91.0724589 C100.501668,91.1288573 103.428877,94.1474985 103.372488,97.814789 C103.316099,101.482079 100.297465,104.409296 96.6301743,104.352916 C92.9628837,104.296536 90.0356595,101.27791 90.0920299,97.6106193 C90.1181217,95.8491959 90.8433768,94.1703975 92.1080302,92.9440433 C93.3726836,91.717689 95.0729847,91.0443875 96.8343777,91.0724589 Z" id="Shape" fill="#FFFFFF" fill-rule="nonzero"></path>
                            <path d="M96.1212701,137.13868 L96.0224315,115.774385 C102.156833,116.304561 108.197889,114.006599 112.429071,109.53345 C106.993171,118.735183 101.557238,127.936927 96.1212701,137.13868 Z" id="Shape" fill="#FFFFFF" fill-rule="nonzero"></path>
                        </g>
                    </g>
                </g>
            </g>
        </g>
    </g>
</svg>