<?xml version="1.0" encoding="UTF-8"?>
<svg width="64px" height="64px" viewBox="0 0 64 64" version="1.1" xmlns="http://www.w3.org/2000/svg" xmlns:xlink="http://www.w3.org/1999/xlink">
    <!-- Generator: Sketch 49.3 (51167) - http://www.bohemiancoding.com/sketch -->
    <title>Branding/Symbol</title>
    <desc>Created with Sketch.</desc>
    <defs>
        <circle id="path-1" cx="32" cy="32" r="32"></circle>
    </defs>
    <g id="Branding/Symbol" stroke="none" stroke-width="1" fill="none" fill-rule="evenodd">
        <g id="Symbol">
            <mask id="mask-2" fill="white">
                <use xlink:href="#path-1"></use>
            </mask>
            <use id="Oval-2" fill="#00D976" xlink:href="#path-1"></use>
            <g id="Palette/Green-Light" mask="url(#mask-2)" fill="#00C46C">
                <rect id="Rectangle" x="0" y="0" width="64" height="64"></rect>
            </g>
            <g id="Group-2" mask="url(#mask-2)">
                <g transform="translate(10.000000, 14.000000)">
                    <circle id="Oval" fill="none" transform="translate(21.722331, 21.859013) rotate(-89.119190) translate(-21.722331, -21.859013) " cx="21.7223314" cy="21.859013" r="1.97327919"></circle>
                    <path d="M5.92341279,29.9689551 C2.08410923,22.4936136 4.01023188,13.3505286 10.5389833,8.05936732 C17.0677347,2.76820603 26.4114952,2.77772689 32.9294502,8.08218216 C39.4474051,13.3866374 41.354891,22.5336287 37.5003614,30.0011306 L41.1220467,31.5962087 C45.7240039,22.4264788 43.2772502,11.2869191 35.2561046,4.88979628 C27.234959,-1.50732651 15.8302307,-1.41477121 7.91396673,5.11169196 C-0.00229724184,11.6381551 -2.26793387,22.8159584 2.48224162,31.9097909 L2.48224162,31.9097795 L5.92341279,29.9689551 Z" id="Shape" fill="#FFFFFF" fill-rule="nonzero"></path>
                    <path d="M31.6376057,12.243416 C26.8945426,7.35266384 19.2938641,6.65066961 13.7352629,10.5899661 C8.17666176,14.5292626 6.32051168,21.9331681 9.36335919,28.0288374 L12.806668,26.0868061 L12.8109417,26.0888301 C10.7990634,21.8515459 12.0491751,16.7835456 15.8007768,13.9679255 C19.5523786,11.1523055 24.7678323,11.3678248 28.274339,14.4833733 C31.7808458,17.5989218 32.6085572,22.7527844 30.2539387,26.8096309 L33.8837458,28.4082973 C36.7329233,23.1054119 35.8246225,16.5686092 31.6376057,12.243416 Z" id="Shape" fill="#FFFFFF" fill-rule="nonzero"></path>
                    <path d="M26.1954014,21.8507874 C26.2246719,19.9299494 25.0244214,18.2048372 23.2132171,17.5645135 C21.4020128,16.9241898 19.3842031,17.5116058 18.1996968,19.0240277 C17.0151905,20.5364497 16.9284266,22.6362319 17.9841202,24.2412199 L17.9836524,24.2412199 L21.5851273,30.7960528 L25.4329811,24.2825535 L25.4315192,24.2825535 C25.9176889,23.5637286 26.1831983,22.7184978 26.1954014,21.8507874 Z M21.7452638,20.4513592 C22.5687956,20.4640241 23.2261338,21.1418944 23.2134709,21.9654263 C23.2008081,22.7889582 22.5229395,23.446298 21.6994076,23.4336373 C20.8758756,23.4209766 20.2185341,22.7431096 20.2311927,21.9195777 C20.2370519,21.52403 20.3999162,21.1470366 20.6839085,20.8716448 C20.9679009,20.596253 21.3497229,20.4450554 21.7452638,20.4513592 Z" id="Shape" fill="#FFFFFF" fill-rule="nonzero"></path>
                    <path d="M21.5851273,30.7960544 L21.562932,25.9984585 C22.9404819,26.1175155 24.2970697,25.6014819 25.2472301,24.5969852 C24.0265367,26.6633394 22.8058358,28.7296958 21.5851273,30.7960544 Z" id="Shape" fill="#FFFFFF" fill-rule="nonzero"></path>
                </g>
            </g>
        </g>
    </g>
</svg>