<svg width="20" height="20" viewBox="0 0 20 20" xmlns="http://www.w3.org/2000/svg"><title>AE29836C-8123-4F30-8AEF-F169BBF3D18E</title><path d="M13.387 5.256l.122-.123 2.911-2.911.308-.308-.44-.006-1.393-.019c-.53-.007-.921-.427-.945-.944-.023-.506.451-.952.945-.945l.514.007c.742.01 1.483.021 2.225.03.463.008.928.013 1.393.02.51.007.947.43.944.944-.002.168-.002.336-.002.503l-.007 2.187c-.002.458-.002.914-.005 1.372 0 .529-.43.92-.944.944-.508.024-.947-.45-.945-.944.003-.168.003-.336.003-.503l.004-1.32-2.056 2.056-1.301 1.301c.261.336.509.682.717 1.054.222.394.407.807.565 1.23.574 1.528.644 3.244.26 4.824a8.193 8.193 0 0 1-2.596 4.236 9.13 9.13 0 0 1-1.11.817c-.387.239-.793.43-1.213.605-.76.318-1.56.49-2.38.571-1.632.158-3.318-.22-4.746-1.015-1.471-.82-2.711-2.13-3.42-3.66a9.251 9.251 0 0 1-.474-1.24 8.825 8.825 0 0 1-.262-1.334 8.334 8.334 0 0 1 .07-2.435c.275-1.648 1.11-3.194 2.284-4.375.014-.014.01-.002-.014.037l1.316 1.316c.047-.04.064-.054.053-.039a7.46 7.46 0 0 0-1.431 2.142l.095-.226a7.378 7.378 0 0 0-.515 1.887c.01-.083.021-.168.033-.25a7.436 7.436 0 0 0 0 1.943 9.077 9.077 0 0 0-.033-.25c.087.649.26 1.282.515 1.886-.03-.075-.064-.15-.095-.226.246.576.562 1.116.945 1.612l-.149-.191c.383.491.824.933 1.315 1.315l-.19-.149a7.46 7.46 0 0 0 1.612.945c-.076-.03-.151-.064-.227-.094a7.378 7.378 0 0 0 1.887.514 9.077 9.077 0 0 1-.25-.033 7.436 7.436 0 0 0 1.943 0l-.25.033a7.378 7.378 0 0 0 1.886-.514c-.075.03-.15.063-.226.094a7.364 7.364 0 0 0 1.612-.945l-.19.15a7.536 7.536 0 0 0 1.314-1.316l-.148.191a7.46 7.46 0 0 0 .944-1.612c-.03.075-.064.15-.094.226a7.378 7.378 0 0 0 .514-1.886c-.01.082-.02.167-.033.25a7.436 7.436 0 0 0 0-1.943l.033.25a7.378 7.378 0 0 0-.514-1.887c.03.076.063.151.094.227a7.364 7.364 0 0 0-.944-1.613l.148.191a7.536 7.536 0 0 0-1.315-1.315l.191.149a7.46 7.46 0 0 0-1.612-.945l.226.095a7.378 7.378 0 0 0-1.886-.515c.082.01.167.021.25.033a7.436 7.436 0 0 0-1.943 0c.082-.01.167-.021.25-.033-.65.087-1.282.26-1.887.515.076-.03.151-.064.227-.095a7.364 7.364 0 0 0-1.613.945l.191-.149c-.245.191-.479.397-.699.616a.31.31 0 0 1-.025.022L2.392 5.9a.275.275 0 0 1 .043-.047C2.75 5.541 3.094 5.26 3.45 5c1.329-.978 2.989-1.502 4.635-1.54a8.235 8.235 0 0 1 5.302 1.797z" fill="#A0B3B8" fill-rule="evenodd"/></svg>