<?xml version="1.0" encoding="UTF-8"?>
<svg width="32px" height="32px" viewBox="0 0 32 32" version="1.1" xmlns="http://www.w3.org/2000/svg" xmlns:xlink="http://www.w3.org/1999/xlink">
    <!-- Generator: Sketch 51.3 (57544) - http://www.bohemiancoding.com/sketch -->
    <title>Icon/Details/Person</title>
    <desc>Created with Sketch.</desc>
    <defs></defs>
    <g id="Icon/Details/Person" stroke="none" stroke-width="1" fill="none" fill-rule="evenodd">
        <g id="Group" transform="translate(6.500000, 1.000000)" fill="#BDD4DA" fill-rule="nonzero" stroke="#BDD4DA">
            <path d="M9,6 C10.6539051,6 12,4.65404247 12,2.99969375 C12,1.34595753 10.6539051,0 9,0 C7.34609495,0 6,1.34595753 6,2.99969375 C6,4.65404247 7.34609495,6 9,6 Z M9,0.906492446 C10.1543645,0.906492446 11.0937213,1.84544712 11.0937213,2.99969375 C11.0937213,4.15424663 10.1543645,5.09350755 9,5.09350755 C7.84563553,5.09350755 6.90627871,4.15424663 6.90627871,2.99969375 C6.90627871,1.84544712 7.84563553,0.906492446 9,0.906492446 Z" id="Shape" stroke-width="0.3"></path>
            <path d="M3.0961828,8.91619412 L0.188637993,14.4882713 C0.182168459,14.500283 0.176039427,14.512962 0.1709319,14.5256409 C0.0575448029,14.7595347 0,15.0081094 0,15.2650256 C0,16.2186182 0.791666667,16.9943714 1.76516129,16.9943714 C2.42505376,16.9943714 3.01991039,16.640361 3.32602151,16.068806 C3.33249104,16.05913 3.33759857,16.0487866 3.3433871,16.0384432 L5.22023297,12.3598713 L5.22023297,28.7664689 C5.22023297,28.8168512 5.24202509,30 7.14032258,30 C9.03793907,30 9.06007168,28.8168512 9.06007168,28.7664689 L9.06007168,19.0857355 L9.93992832,19.0857355 L9.93992832,28.7661352 C9.93992832,28.8165175 9.96172043,29.9996663 11.8596774,29.9996663 C13.7576344,29.9996663 13.779767,28.8165175 13.779767,28.7661352 L13.779767,12.3595376 L15.6562724,16.0377759 C15.6627419,16.0497876 15.668871,16.0611319 15.6760215,16.0724763 C15.9824731,16.6420293 16.5763082,16.9943714 17.2348387,16.9943714 C18.2079928,16.9943714 19,16.2189518 19,15.2650256 C19,15.0067748 18.9417742,14.7575328 18.8280466,14.5233053 C18.8229391,14.5112937 18.817491,14.4996157 18.811362,14.488605 L15.9031362,8.91586046 C15.2023835,7.57288976 14.246595,7.00000015 12.7075269,7.00000015 L6.29179211,7.00000015 C4.75306452,6.99966649 3.79693548,7.5725561 3.0961828,8.91619412 Z M6.29179211,7.98729215 L12.7075269,7.98729215 C13.8737455,7.98729215 14.4747312,8.34764205 15.005914,9.36496321 L17.8994982,14.9113488 C17.9032437,14.9190229 17.9066487,14.9270307 17.9107348,14.9347048 C17.9641935,15.0391395 17.9910932,15.1502474 17.9910932,15.2646919 C17.9910932,15.6737558 17.6516129,16.0064121 17.2338172,16.0064121 C16.9460932,16.0064121 16.6873118,15.8489259 16.5579211,15.5960136 C16.5528136,15.5860039 16.5473656,15.5759942 16.5415771,15.5663181 L13.7252867,10.0472924 C13.6207527,9.84276049 13.38819,9.7339882 13.1593728,9.78770703 C12.9315771,9.84009123 12.7708602,10.0392846 12.7708602,10.2681736 L12.7708602,28.7374407 C12.7439606,28.8211887 12.5389785,29.0120407 11.8586559,29.0120407 C11.1783333,29.0120407 10.9736918,28.8211887 10.9467921,28.7374407 L10.9467921,18.5922563 C10.9467921,18.3196583 10.7206989,18.0987771 10.44319,18.0987771 L8.55510753,18.0987771 C8.27759857,18.0987771 8.05150538,18.3196583 8.05150538,18.5922563 L8.05150538,28.7374407 C8.02460573,28.8211887 7.81996416,29.0120407 7.13964158,29.0120407 C6.459319,29.0120407 6.25433692,28.8211887 6.22743728,28.7374407 L6.22743728,10.2681736 C6.22743728,10.038951 6.06672043,9.84009123 5.83892473,9.78770703 C5.61010753,9.7339882 5.3775448,9.84276049 5.27301075,10.0469588 L2.45501792,15.5696547 C2.44956989,15.5783298 2.44548387,15.5873385 2.44071685,15.5960136 C2.31132616,15.8492595 2.0522043,16.0064121 1.76482079,16.0064121 C1.34702509,16.0064121 1.0075448,15.6737558 1.0075448,15.2646919 C1.0075448,15.1502474 1.03478495,15.0384722 1.08824373,14.9337038 C1.09232975,14.9256961 1.09607527,14.917021 1.10016129,14.9090132 L3.99272401,9.36529687 C4.52458781,8.34764205 5.12557348,7.98729215 6.29179211,7.98729215 Z" id="Shape" stroke-width="0.2"></path>
        </g>
    </g>
</svg>