<svg width="35" height="38" viewBox="0 0 35 38" xmlns="http://www.w3.org/2000/svg"><title>3E75E6AF-3EFD-4CEC-B6E9-E76C10100BC0</title><g fill="none" fill-rule="evenodd"><path d="M9 10.938a5.255 5.255 0 0 1-5.125-4.125C3.25 4 5.062 1.125 7.875.5a5.292 5.292 0 0 1 4 .688c1.187.75 2 1.937 2.312 3.312.625 2.813-1.187 5.688-4 6.313-.437.062-.812.125-1.187.125zm2-8.376A3.877 3.877 0 0 0 9 2c-.25 0-.563 0-.813.062-2 .5-3.25 2.438-2.812 4.438.5 2 2.438 3.25 4.438 2.812 2-.5 3.25-2.437 2.812-4.437-.188-.938-.813-1.813-1.625-2.313zm1.875 9.75c2.188 0 4 1.813 4.063 4.063v11.75a4.018 4.018 0 0 1-3.25 3.938v4.75a.827.827 0 0 1-.813.812.827.827 0 0 1-.812-.813v-5.437c0-.438.375-.813.812-.813a2.44 2.44 0 0 0 2.438-2.437v-11.75a2.44 2.44 0 0 0-2.438-2.438H5.188a2.44 2.44 0 0 0-2.438 2.438v11.75a2.44 2.44 0 0 0 2.438 2.438c.437 0 .812.375.812.812v5.438a.827.827 0 0 1-.812.812.827.827 0 0 1-.813-.813v-4.75a4.018 4.018 0 0 1-3.25-3.937v-11.75a4.054 4.054 0 0 1 4.063-4.063h7.687zm14.563-1.374c-2.438 0-4.625-1.625-5.125-4.125C21.688 4 23.5 1.125 26.313.5a5.292 5.292 0 0 1 4 .688c1.187.75 2 1.937 2.312 3.312.625 2.813-1.188 5.688-4 6.313-.438.062-.813.125-1.188.125zm1.937-8.376c-.562-.375-1.25-.562-2-.562-.25 0-.562 0-.812.062-2 .5-3.25 2.438-2.813 4.438.5 2 2.438 3.25 4.438 2.812 2-.5 3.25-2.437 2.812-4.437-.187-.938-.812-1.813-1.625-2.313zm1.188 9.75a4.054 4.054 0 0 1 4.062 4.063v7.188c0 2-.937 3.437-2.375 3.875l2.375 9.125a.803.803 0 0 1-.562 1 .803.803 0 0 1-1-.563L33 36.812 30.5 27c-.063-.25 0-.5.125-.688A.77.77 0 0 1 31.25 26c.625 0 1.75-.313 1.75-2.438v-7.187a2.44 2.44 0 0 0-2.438-2.438H24.25a2.44 2.44 0 0 0-2.438 2.438v7.25c0 .875.188 2.438 1.75 2.438.25 0 .5.125.625.312.188.188.188.438.125.688l-3.187 9.75-.063.25a.786.786 0 0 1-.75.562c-.062 0-.187-.063-.25-.063-.375-.124-.625-.562-.5-1l2.938-9.124c-1.438-.438-2.313-1.875-2.313-3.875v-7.188a4.054 4.054 0 0 1 4.063-4.063h6.313z" fill="#BDD4DA" fill-rule="nonzero" stroke="#BDD4DA" stroke-width=".5"/></g></svg>