<svg width="42" height="36" viewBox="0 0 42 36" xmlns="http://www.w3.org/2000/svg"><title>1C1CA538-8CDB-492F-9849-88C75E84EFDA</title><path d="M5.559 17.273V18c0 8.57 6.913 15.517 15.441 15.517.682 0 1.235.556 1.235 1.242 0 .685-.553 1.241-1.235 1.241-9.892 0-17.912-8.059-17.912-18v-.727l-.98.984a1.231 1.231 0 0 1-1.746 0 1.246 1.246 0 0 1 0-1.755l3.088-3.104a1.231 1.231 0 0 1 1.747 0l3.088 3.104c.483.484.483 1.27 0 1.755a1.231 1.231 0 0 1-1.747 0l-.98-.984zm30.882 1.454V18c0-8.57-6.913-15.517-15.441-15.517a1.238 1.238 0 0 1-1.235-1.242C19.765.556 20.318 0 21 0c9.892 0 17.912 8.059 17.912 18v.727l.98-.984a1.231 1.231 0 0 1 1.746 0c.483.485.483 1.27 0 1.755l-3.088 3.104a1.231 1.231 0 0 1-1.747 0l-3.088-3.104a1.246 1.246 0 0 1 0-1.755 1.231 1.231 0 0 1 1.747 0l.98.984zM12.353 18c0-4.8 3.87-8.69 8.647-8.69 4.776 0 8.647 3.89 8.647 8.69 0 4.8-3.87 8.69-8.647 8.69-4.776 0-8.647-3.89-8.647-8.69zm2.47 0c0 3.429 2.765 6.207 6.177 6.207 3.412 0 6.176-2.779 6.176-6.207 0-3.429-2.764-6.207-6.176-6.207-3.412 0-6.176 2.779-6.176 6.207z" fill="#BDD4DA" fill-rule="nonzero"/></svg>