<?xml version="1.0" encoding="UTF-8"?>
<svg width="25px" height="30px" viewBox="0 0 25 30" version="1.1" xmlns="http://www.w3.org/2000/svg" xmlns:xlink="http://www.w3.org/1999/xlink">
    <!-- Generator: sketchtool 50.2 (55047) - http://www.bohemiancoding.com/sketch -->
    <title>0E1C349F-C908-476C-B1D4-5E14574A6105@2x</title>
    <desc>Created with sketchtool.</desc>
    <defs></defs>
    <g id="Green" stroke="none" stroke-width="1" fill="none" fill-rule="evenodd">
        <g id="Landing" transform="translate(-639.000000, -256.000000)" fill="#BDD4DA" fill-rule="nonzero">
            <g id="Campaign-" transform="translate(237.000000, 140.000000)">
                <g id="Ptos-Contacto-Copy" transform="translate(386.000000, 99.000000)">
                    <g id="Rota-icn" transform="translate(0.000000, 4.000000)">
                        <path d="M36.7246149,19.0976381 C36.2966523,18.6696755 36.2966523,17.9751133 36.7316306,17.5471507 C37.1595932,17.1191881 37.8541555,17.1191881 38.2821181,17.5471507 C38.892491,18.1575236 39.3835956,18.8871647 39.7133373,19.6939795 C40.0430789,20.4727311 40.2184734,21.3216405 40.2184734,22.2126446 L40.2184734,33.2204038 C40.2184734,35.0374909 39.4748007,36.6861992 38.2821181,37.8858977 C37.0824197,39.0785803 35.4337113,39.822253 33.6166242,39.822253 L25.2608299,39.822253 L25.962408,40.5308468 C26.3973863,40.9588094 26.3973863,41.6533717 25.962408,42.0813342 C25.5344454,42.5163126 24.8398831,42.5163126 24.4119205,42.0813342 L21.8301134,39.4995271 L21.809066,39.4854956 L21.809066,39.4784798 L21.7880187,39.4644482 L21.7739871,39.4434009 L21.7669714,39.4434009 L21.7529398,39.4223535 L21.7389082,39.408322 L21.7389082,39.4013062 L21.7318925,39.3942904 L21.7248767,39.3802589 L21.7178609,39.3732431 L21.7108451,39.3592115 L21.7038293,39.3592115 C21.6897978,39.3311484 21.6687504,39.3030853 21.6477031,39.2750221 L21.6406873,39.2609906 L21.6406873,39.246959 L21.6336715,39.2329275 L21.6266558,39.2259117 L21.61964,39.2118801 L21.6126242,39.1978486 L21.6056084,39.1908328 L21.5985926,39.1768012 L21.5985926,39.1627697 L21.5915769,39.1557539 L21.5845611,39.1417223 L21.5775453,39.1276908 L21.5775453,39.1136592 L21.5705295,39.0996276 L21.5635137,39.0855961 C21.5284348,38.9873752 21.5144033,38.8821385 21.5073875,38.7769017 L21.5073875,38.7558544 L21.5073875,38.7488386 L21.5073875,38.7207755 L21.5073875,38.6997282 L21.5073875,38.6927124 L21.5073875,38.671665 C21.5144033,38.5594126 21.5284348,38.4611916 21.5635137,38.3629707 L21.5705295,38.3489392 L21.5775453,38.3349076 L21.5775453,38.320876 L21.5845611,38.3068445 L21.5915769,38.2928129 L21.5985926,38.2857971 L21.5985926,38.2717656 L21.6056084,38.257734 L21.6126242,38.2437024 L21.61964,38.2366867 L21.6266558,38.2226551 L21.6336715,38.2086235 L21.6406873,38.2016078 L21.6406873,38.1875762 L21.6477031,38.1735446 C21.6687504,38.1454815 21.6897978,38.1174184 21.7038293,38.0893553 L21.7108451,38.0893553 L21.7178609,38.0753237 L21.7248767,38.0683079 L21.7318925,38.0542764 L21.7389082,38.0472606 L21.7389082,38.0402448 L21.7529398,38.0262133 L21.7669714,38.0051659 L21.7739871,38.0051659 L21.7880187,37.9841186 L21.809066,37.9630712 L21.8301134,37.9490397 L21.844145,37.9279923 L21.8651923,37.906945 L21.8792239,37.8929134 L24.3768416,35.3461852 C24.8048042,34.9112068 25.4993665,34.9112068 25.9343448,35.3321536 C26.3623074,35.7601162 26.3693232,36.4546785 25.9413606,36.8896569 L25.2187353,37.6263138 L33.6166242,37.6263138 C34.8233384,37.6263138 35.9248159,37.1281934 36.7246149,36.3283944 C37.5244138,35.5285955 38.0155184,34.427118 38.0155184,33.2204038 L38.0155184,22.2126446 C38.0155184,21.6163032 37.8962502,21.048025 37.6857768,20.5358731 C37.4612718,19.995658 37.1315301,19.5045534 36.7246149,19.0976381 Z M30.2771128,14.8671226 C29.8491502,14.43916 29.856166,13.7445978 30.2911444,13.3166352 C30.719107,12.8886726 31.4136692,12.8956884 31.8416318,13.3306668 L34.3392496,15.877395 L34.3532811,15.8914266 L34.3743285,15.9054581 L34.3743285,15.9124739 L34.3953758,15.9265055 L34.4094074,15.9475528 L34.4304547,15.9686001 L34.4444863,15.9826317 L34.4515021,15.9896475 L34.4655336,16.003679 L34.4795652,16.0247264 L34.486581,16.0317422 L34.4935967,16.0457737 L34.5006125,16.0527895 L34.5146441,16.0668211 C34.5356914,16.0948842 34.549723,16.1299631 34.5707703,16.1580262 L34.5777861,16.1720578 L34.5848019,16.1790736 L34.5918177,16.1931051 L34.5918177,16.2071367 L34.5988335,16.2211682 L34.6058492,16.228184 L34.612865,16.2422156 L34.6198808,16.2562471 L34.6268966,16.2702787 L34.6268966,16.2772945 L34.6339124,16.291326 L34.6409281,16.3053576 L34.6409281,16.3193892 L34.6479439,16.3264049 L34.6549597,16.3404365 C34.6900386,16.4386574 34.7110859,16.5438941 34.7110859,16.6561466 L34.7181017,16.677194 L34.7181017,16.7052571 L34.7181017,16.7333202 L34.7110859,16.7613833 C34.7110859,16.86662 34.6900386,16.9718567 34.6549597,17.0700776 L34.6479439,17.0841092 L34.6409281,17.0981408 L34.6409281,17.1121723 L34.6339124,17.1191881 L34.6268966,17.1332197 L34.6268966,17.1472512 L34.6198808,17.1612828 L34.612865,17.1682986 L34.6058492,17.1823301 L34.5988335,17.1963617 L34.5918177,17.2103932 L34.5918177,17.217409 L34.5848019,17.2314406 L34.5777861,17.2384564 L34.5707703,17.2524879 C34.549723,17.2875668 34.5356914,17.31563 34.5146441,17.3436931 L34.5006125,17.3577246 L34.4935967,17.3647404 L34.486581,17.378772 L34.4795652,17.3857878 L34.4655336,17.4068351 L34.4515021,17.4208667 L34.4444863,17.4278824 L34.4304547,17.441914 L34.4304547,17.4489298 L34.4094074,17.4629613 L34.3953758,17.4840087 L31.8135687,20.0658158 C31.3785903,20.4937784 30.6840281,20.4937784 30.2560655,20.0658158 C29.8210871,19.6378532 29.8210871,18.9362752 30.2560655,18.5083126 L30.9576435,17.8067346 L22.6018492,17.8067346 C21.395135,17.8067346 20.2936575,18.304855 19.4938586,19.1046539 C18.6940596,19.8974371 18.202955,20.9989146 18.202955,22.2126446 L18.202955,33.2204038 C18.202955,33.8167451 18.3222233,34.3850233 18.5326967,34.8971753 C18.7572016,35.4373903 19.0869433,35.928495 19.4938586,36.3283944 C19.9218212,36.756357 19.9288369,37.4509193 19.5008743,37.8858977 C19.0729118,38.3138603 18.3783495,38.3138603 17.9433711,37.8858977 C17.3329982,37.2755248 16.8418936,36.5458836 16.5051362,35.7390689 C16.1824103,34.9603173 16,34.1043921 16,33.2204038 L16,22.2126446 C16,20.3955575 16.7436727,18.7398333 17.9363553,17.5471507 C19.1360538,16.3474523 20.7847621,15.6037796 22.6018492,15.6037796 L30.9997382,15.6037796 L30.2771128,14.8671226 Z" id="rota"></path>
                    </g>
                </g>
            </g>
        </g>
    </g>
</svg>