<?xml version="1.0" encoding="UTF-8"?>
<svg width="32px" height="32px" viewBox="0 0 32 32" version="1.1" xmlns="http://www.w3.org/2000/svg" xmlns:xlink="http://www.w3.org/1999/xlink">
    <!-- Generator: Sketch 51.3 (57544) - http://www.bohemiancoding.com/sketch -->
    <title>Icon/Details/Rotar</title>
    <desc>Created with Sketch.</desc>
    <defs></defs>
    <g id="Icon/Details/Rotar" stroke="none" stroke-width="1" fill="none" fill-rule="evenodd">
        <path d="M23.0123735,7.70934039 C22.6464192,7.31845093 22.6464192,6.68405656 23.0183727,6.2931671 C23.384327,5.90227763 23.9782527,5.90227763 24.344207,6.2931671 C24.8661417,6.85066518 25.2860892,7.51709967 25.568054,8.25402243 C25.8500187,8.96531309 26,9.74068399 26,10.554503 L26,20.6086926 C26,22.2683708 25.3640795,23.7742565 24.344207,24.8700286 C23.3183352,25.9593926 21.9085114,26.6386432 20.3547057,26.6386432 L13.2095988,26.6386432 L13.8095238,27.2858536 C14.1814773,27.6767431 14.1814773,28.3111374 13.8095238,28.7020269 C13.4435696,29.0993244 12.8496438,29.0993244 12.4836895,28.7020269 L10.2759655,26.3438741 L10.2579678,26.331058 L10.2579678,26.32465 L10.23997,26.3118339 L10.2279715,26.2926099 L10.2219723,26.2926099 L10.2099738,26.2733858 L10.1979753,26.2605698 L10.1979753,26.2541617 L10.191976,26.2477537 L10.1859768,26.2349377 L10.1799775,26.2285296 L10.1739783,26.2157136 L10.167979,26.2157136 C10.1559805,26.1900815 10.1379828,26.1644494 10.119985,26.1388173 L10.1139858,26.1260013 L10.1139858,26.1131852 L10.1079865,26.1003692 L10.1019873,26.0939611 L10.095988,26.0811451 L10.0899888,26.068329 L10.0839895,26.061921 L10.0779903,26.049105 L10.0779903,26.0362889 L10.071991,26.0298809 L10.0659918,26.0170648 L10.0599925,26.0042488 L10.0599925,25.9914328 L10.0539933,25.9786167 L10.047994,25.9658007 C10.0179978,25.8760883 10.0059993,25.779968 10,25.6838476 L10,25.6646235 L10,25.6582155 L10,25.6325834 L10,25.6133593 L10,25.6069513 L10,25.5877272 C10.0059993,25.4851989 10.0179978,25.3954865 10.047994,25.3057742 L10.0539933,25.2929581 L10.0599925,25.2801421 L10.0599925,25.267326 L10.0659918,25.25451 L10.071991,25.2416939 L10.0779903,25.2352859 L10.0779903,25.2224699 L10.0839895,25.2096538 L10.0899888,25.1968378 L10.095988,25.1904298 L10.1019873,25.1776137 L10.1079865,25.1647977 L10.1139858,25.1583896 L10.1139858,25.1455736 L10.119985,25.1327575 C10.1379828,25.1071254 10.1559805,25.0814933 10.167979,25.0558613 L10.1739783,25.0558613 L10.1799775,25.0430452 L10.1859768,25.0366372 L10.191976,25.0238211 L10.1979753,25.0174131 L10.1979753,25.0110051 L10.2099738,24.998189 L10.2219723,24.978965 L10.2279715,24.978965 L10.23997,24.9597409 L10.2579678,24.9405168 L10.2759655,24.9277008 L10.287964,24.9084767 L10.3059618,24.8892526 L10.3179603,24.8764366 L12.4536933,22.5503239 C12.8196475,22.1530264 13.4135733,22.1530264 13.7855268,22.5375078 C14.1514811,22.9283973 14.1574803,23.5627917 13.7915261,23.9600892 L13.1736033,24.6329317 L20.3547057,24.6329317 C21.3865767,24.6329317 22.3284589,24.177962 23.0123735,23.4474472 C23.696288,22.7169325 24.1162355,21.7108727 24.1162355,20.6086926 L24.1162355,10.554503 C24.1162355,10.009821 24.0142482,9.49077105 23.8342707,9.0229853 C23.6422947,8.52956746 23.36033,8.08100578 23.0123735,7.70934039 Z M18.2038981,4.70365545 C17.838081,4.31316112 17.844078,3.67940803 18.2158921,3.28891369 C18.5817091,2.89841936 19.1754123,2.90482091 19.5412294,3.30171679 L21.6761619,5.62547814 L21.6881559,5.63828123 L21.7061469,5.65108432 L21.7061469,5.65748587 L21.7241379,5.67028896 L21.7361319,5.6894936 L21.7541229,5.70869824 L21.7661169,5.72150133 L21.7721139,5.72790288 L21.7841079,5.74070597 L21.7961019,5.75991061 L21.802099,5.76631216 L21.808096,5.77911525 L21.814093,5.7855168 L21.826087,5.79831989 C21.844078,5.82392608 21.856072,5.85593381 21.874063,5.88153999 L21.88006,5.89434309 L21.886057,5.90074463 L21.892054,5.91354773 L21.892054,5.92635082 L21.898051,5.93915391 L21.904048,5.94555546 L21.910045,5.95835855 L21.916042,5.97116164 L21.922039,5.98396474 L21.922039,5.99036628 L21.928036,6.00316938 L21.934033,6.01597247 L21.934033,6.02877556 L21.94003,6.03517711 L21.946027,6.0479802 C21.976012,6.13760185 21.994003,6.23362505 21.994003,6.33604979 L22,6.35525443 L22,6.38086061 L22,6.4064668 L21.994003,6.43207299 C21.994003,6.52809618 21.976012,6.62411938 21.946027,6.71374103 L21.94003,6.72654412 L21.934033,6.73934721 L21.934033,6.75215031 L21.928036,6.75855185 L21.922039,6.77135495 L21.922039,6.78415804 L21.916042,6.79696113 L21.910045,6.80336268 L21.904048,6.81616577 L21.898051,6.82896886 L21.892054,6.84177196 L21.892054,6.8481735 L21.886057,6.8609766 L21.88006,6.86737814 L21.874063,6.88018123 C21.856072,6.91218897 21.844078,6.93779515 21.826087,6.96340134 L21.814093,6.97620443 L21.808096,6.98260598 L21.802099,6.99540907 L21.7961019,7.00181062 L21.7841079,7.02101526 L21.7721139,7.03381835 L21.7661169,7.04021989 L21.7541229,7.05302299 L21.7541229,7.05942453 L21.7361319,7.07222763 L21.7241379,7.09143227 L19.5172414,9.44720135 C19.1454273,9.83769568 18.5517241,9.83769568 18.185907,9.44720135 C17.814093,9.05670702 17.814093,8.41655237 18.185907,8.02605804 L18.7856072,7.3859034 L11.6431784,7.3859034 C10.6116942,7.3859034 9.67016492,7.8404132 8.98650675,8.57018949 C8.30284858,9.29356423 7.88305847,10.298607 7.88305847,11.4060746 L7.88305847,21.4501009 C7.88305847,21.9942323 7.9850075,22.5127576 8.16491754,22.9800705 C8.35682159,23.4729896 8.63868066,23.9210978 8.98650675,24.2859859 C9.35232384,24.6764803 9.35832084,25.3102334 8.99250375,25.7071293 C8.62668666,26.0976236 8.03298351,26.0976236 7.66116942,25.7071293 C7.13943028,25.1501947 6.71964018,24.4844339 6.43178411,23.748256 C6.15592204,23.0376844 6,22.2566957 6,21.4501009 L6,11.4060746 C6,9.74807403 6.63568216,8.23730908 7.65517241,7.14904618 C8.68065967,6.05438175 10.089955,5.37581783 11.6431784,5.37581783 L18.8215892,5.37581783 L18.2038981,4.70365545 Z" id="rota" fill="#BDD4DA" fill-rule="nonzero"></path>
    </g>
</svg>
