<?xml version="1.0" encoding="UTF-8"?>
<svg width="41px" height="30px" viewBox="0 0 41 30" version="1.1" xmlns="http://www.w3.org/2000/svg" xmlns:xlink="http://www.w3.org/1999/xlink">
    <!-- Generator: Sketch 50.2 (55047) - http://www.bohemiancoding.com/sketch -->
    <title>Group@2x</title>
    <desc>Created with Sketch.</desc>
    <defs></defs>
    <g id="Green" stroke="none" stroke-width="1" fill="none" fill-rule="evenodd">
        <g id="Landing" transform="translate(-260.000000, -255.000000)" fill="#BDD4DA" fill-rule="nonzero">
            <g id="Campaign-" transform="translate(237.000000, 140.000000)">
                <g id="Veces-visto" transform="translate(16.000000, 98.000000)">
                    <g id="Rota-icn" transform="translate(0.000000, 4.000000)">
                        <g id="Group" transform="translate(7.567568, 13.621622)">
                            <path d="M21.3429054,4.71790541 L21.3429054,1.21317568 C21.3429054,0.584121622 20.8486486,0.0898648649 20.2195946,0.0898648649 C19.5905405,0.0898648649 19.0962838,0.584121622 19.0962838,1.21317568 L19.0962838,4.71790541 C19.0962838,5.34695946 19.5905405,5.84121622 20.2195946,5.84121622 C20.8486486,5.84121622 21.3429054,5.34695946 21.3429054,4.71790541 Z" id="Shape"></path>
                            <path d="M14.1537162,6.65 C14.2435811,6.65 14.3334459,6.65 14.4233108,6.60506757 C15.0074324,6.42533784 15.3668919,5.84121622 15.2320946,5.21216216 L14.3334459,1.7972973 C14.1537162,1.21317568 13.5695946,0.853716216 12.9405405,0.988513514 C12.3564189,1.16824324 11.9969595,1.75236486 12.1317568,2.38141892 L13.0304054,5.79628378 C13.2101351,6.29054054 13.6594595,6.65 14.1537162,6.65 Z" id="Shape"></path>
                            <path d="M8.49222973,8.98648649 C8.67195946,8.98648649 8.89662162,8.94155405 9.03141892,8.85168919 C9.57060811,8.53716216 9.75033784,7.86317568 9.43581081,7.32398649 L7.68344595,4.26858108 C7.36891892,3.72939189 6.69493243,3.54966216 6.15574324,3.86418919 C5.61655405,4.17871622 5.43682432,4.8527027 5.75135135,5.39189189 L7.50371622,8.4472973 C7.72837838,8.76182432 8.08783784,8.98648649 8.49222973,8.98648649 Z" id="Shape"></path>
                            <path d="M3.59459459,12.7158784 C3.86418919,12.7158784 4.17871622,12.6260135 4.40337838,12.4013514 C4.8527027,11.952027 4.8527027,11.2331081 4.40337838,10.8287162 L1.93209459,8.35743243 C1.48277027,7.90810811 0.763851351,7.90810811 0.359459459,8.35743243 C-0.0898648649,8.80675676 -0.0898648649,9.52567568 0.359459459,9.93006757 L2.83074324,12.4013514 C3.05540541,12.5810811 3.325,12.7158784 3.59459459,12.7158784 Z" id="Shape"></path>
                            <path d="M26.285473,6.65 C26.7797297,6.65 27.2290541,6.33547297 27.3638514,5.79628378 L28.2625,2.38141892 C28.4422297,1.7972973 28.0827703,1.16824324 27.4537162,0.988513514 C26.8695946,0.808783784 26.2405405,1.16824324 26.0608108,1.7972973 L25.1621622,5.21216216 C24.9824324,5.79628378 25.3418919,6.42533784 25.9709459,6.60506757 C26.1057432,6.60506757 26.1956081,6.65 26.285473,6.65 Z" id="Shape"></path>
                            <path d="M34.2834459,3.81925676 C33.7442568,3.50472973 33.0702703,3.68445946 32.7557432,4.22364865 L31.0033784,7.27905405 C30.6888514,7.81824324 30.8685811,8.49222973 31.4077703,8.80675676 C31.5875,8.89662162 31.7672297,8.94155405 31.9469595,8.94155405 C32.3513514,8.94155405 32.7108108,8.76182432 32.935473,8.35743243 L34.6878378,5.30202703 C35.0023649,4.8527027 34.8226351,4.13378378 34.2834459,3.81925676 Z" id="Shape"></path>
                            <path d="M38.5070946,8.3125 L36.0358108,10.7837838 C35.5864865,11.2331081 35.5864865,11.952027 36.0358108,12.3564189 C36.260473,12.5810811 36.5300676,12.6709459 36.8445946,12.6709459 C37.1591216,12.6709459 37.4287162,12.5810811 37.6533784,12.3564189 L40.1246622,9.88513514 C40.5739865,9.43581081 40.5739865,8.71689189 40.1246622,8.3125 C39.6753378,7.86317568 38.9564189,7.86317568 38.5070946,8.3125 Z" id="Shape"></path>
                            <path d="M38.4621622,18.7817568 C38.6868243,18.4222973 38.6868243,17.972973 38.4621622,17.6135135 C34.6878378,11.4577703 27.7233108,7.63851351 20.2195946,7.63851351 C12.7158784,7.63851351 5.75135135,11.4577703 1.97702703,17.5685811 C1.75236486,17.9280405 1.75236486,18.3773649 1.97702703,18.7368243 C5.75135135,24.8925676 12.7158784,28.7118243 20.2195946,28.7118243 C27.7233108,28.7118243 34.6878378,24.8925676 38.4621622,18.7817568 Z M20.2195946,26.4652027 C13.7493243,26.4652027 7.72837838,23.3199324 4.26858108,18.1976351 C7.72837838,13.0753378 13.7493243,9.88513514 20.2195946,9.88513514 C26.6898649,9.88513514 32.7108108,13.0304054 36.1706081,18.1527027 C32.7108108,23.275 26.6898649,26.4652027 20.2195946,26.4652027 Z" id="Shape"></path>
                            <path d="M20.2195946,12.5361486 C17.1192568,12.5361486 14.6030405,15.0523649 14.6030405,18.1527027 C14.6030405,21.2530405 17.1192568,23.7692568 20.2195946,23.7692568 C23.3199324,23.7692568 25.8361486,21.2530405 25.8361486,18.1527027 C25.8361486,15.0523649 23.3199324,12.5361486 20.2195946,12.5361486 Z M20.2195946,21.5226351 C18.3773649,21.5226351 16.8496622,19.9949324 16.8496622,18.1527027 C16.8496622,16.310473 18.3773649,14.7827703 20.2195946,14.7827703 C22.0618243,14.7827703 23.589527,16.310473 23.589527,18.1527027 C23.589527,19.9949324 22.0618243,21.5226351 20.2195946,21.5226351 Z" id="Shape"></path>
                        </g>
                    </g>
                </g>
            </g>
        </g>
    </g>
</svg>